<?xml version="1.0" encoding="UTF-8" standalone="no"?>
<svg
   width="32"
   height="32"
   version="1.1"
   id="svg12"
   sodipodi:docname="start.svg"
   inkscape:version="1.1.1 (3bf5ae0d25, 2021-09-20, custom)"
   xmlns:inkscape="http://www.inkscape.org/namespaces/inkscape"
   xmlns:sodipodi="http://sodipodi.sourceforge.net/DTD/sodipodi-0.dtd"
   xmlns="http://www.w3.org/2000/svg"
   xmlns:svg="http://www.w3.org/2000/svg"
   xmlns:rdf="http://www.w3.org/1999/02/22-rdf-syntax-ns#"
   xmlns:cc="http://creativecommons.org/ns#"
   xmlns:dc="http://purl.org/dc/elements/1.1/">
  <metadata
     id="metadata16">
    <rdf:RDF>
      <cc:Work
         rdf:about="">
        <dc:format>image/svg+xml</dc:format>
        <dc:type
           rdf:resource="http://purl.org/dc/dcmitype/StillImage" />
        <dc:title />
      </cc:Work>
    </rdf:RDF>
  </metadata>
  <sodipodi:namedview
     pagecolor="#c8c8c8"
     bordercolor="#666666"
     borderopacity="1"
     objecttolerance="10"
     gridtolerance="10"
     guidetolerance="10"
     inkscape:pageopacity="0"
     inkscape:pageshadow="2"
     inkscape:window-width="1920"
     inkscape:window-height="976"
     id="namedview14"
     showgrid="true"
     inkscape:zoom="8"
     inkscape:cx="-1.9375"
     inkscape:cy="17.8125"
     inkscape:window-x="0"
     inkscape:window-y="0"
     inkscape:window-maximized="1"
     inkscape:current-layer="svg12"
     inkscape:snap-bbox="true"
     inkscape:bbox-nodes="true"
     inkscape:snap-bbox-edge-midpoints="true"
     inkscape:snap-nodes="false"
     inkscape:document-rotation="0"
     inkscape:object-paths="true"
     inkscape:snap-intersection-paths="true"
     inkscape:snap-smooth-nodes="true"
     inkscape:snap-midpoints="true"
     inkscape:pagecheckerboard="0"
     showguides="false">
    <inkscape:grid
       type="xygrid"
       id="grid4539" />
  </sodipodi:namedview>
  <defs
     id="defs7386">
    <style
       id="current-color-scheme"
       type="text/css">
   .ColorScheme-Text { color:#dedede; } .ColorScheme-Highlight { color:#5294e2; } .ColorScheme-ButtonBackground { color:#dedede; }
  </style>
    <linearGradient
       id="linearGradient8660"
       x1="-7.6728001"
       x2="-5.027"
       y1="-29.104"
       y2="-27.252001"
       gradientTransform="matrix(3.3620413,0,0,3.3620413,56.979969,79.985673)"
       gradientUnits="userSpaceOnUse">
      <stop
         stop-color="#00bffb"
         offset="0"
         id="stop17" />
      <stop
         stop-color="#01a0f3"
         offset="1"
         id="stop19" />
    </linearGradient>
    <linearGradient
       id="linearGradient8668"
       x1="-4.7624002"
       x2="-1.852"
       y1="-27.252001"
       y2="-30.122999"
       gradientTransform="matrix(3.5258028,0,0,3.3620413,57.757906,79.985673)"
       gradientUnits="userSpaceOnUse">
      <stop
         stop-color="#11c2f4"
         offset="0"
         id="stop12" />
      <stop
         stop-color="#2dc5f4"
         offset="1"
         id="stop14" />
    </linearGradient>
    <linearGradient
       id="linearGradient8676"
       x1="-7.6728001"
       x2="-5.027"
       y1="-26.722"
       y2="-24.493"
       gradientTransform="matrix(3.3620413,0,0,3.3620413,56.979969,79.985673)"
       gradientUnits="userSpaceOnUse">
      <stop
         stop-color="#0954a8"
         offset="0"
         id="stop7" />
      <stop
         stop-color="#0954a8"
         offset="1"
         id="stop9" />
    </linearGradient>
    <linearGradient
       id="linearGradient8684"
       x1="-4.4977999"
       x2="-1.852"
       y1="-26.722"
       y2="-24.111"
       gradientTransform="matrix(3.5258028,0,0,3.3620413,57.757906,79.985673)"
       gradientUnits="userSpaceOnUse">
      <stop
         stop-color="#339ed9"
         offset="0"
         id="stop2" />
      <stop
         stop-color="#2386c9"
         offset="1"
         id="stop4" />
    </linearGradient>
  </defs>
  <g
     id="start-here-kde">
    <rect
       style="color:#bebebe;display:inline;overflow:visible;visibility:visible;fill:none;stroke:none;stroke-width:1;marker:none"
       id="rect6336-6"
       width="32"
       height="32"
       x="0"
       y="0" />
    <g
       id="g17182"
       transform="translate(34)">
      <path
         id="path882"
         style="color:#000000;fill:#ff5555;stroke-linejoin:round;-inkscape-stroke:none"
         d="M 18.300781 3 A 1.30013 1.30013 0 0 0 17 4.3007812 L 17 5.9003906 L 17 13.099609 L 17 14.699219 A 1.30013 1.30013 0 0 0 18.300781 16 L 19.900391 16 L 27.099609 16 L 28.699219 16 A 1.30013 1.30013 0 0 0 30 14.699219 L 30 13.099609 L 30 5.9003906 C 30 4.3162792 28.683722 3 27.099609 3 L 19.900391 3 L 18.300781 3 z M 19 5 L 20.384766 5 L 26.615234 5 C 26.663184 5 26.711146 5.0011594 26.757812 5.0058594 C 26.804482 5.0105594 26.851327 5.0181537 26.896484 5.0273438 C 26.941644 5.0365437 26.98393 5.0471069 27.027344 5.0605469 C 27.070764 5.0739969 27.114806 5.0899419 27.15625 5.1074219 C 27.1977 5.1248919 27.238093 5.1447356 27.277344 5.1660156 C 27.316594 5.1872856 27.353804 5.209535 27.390625 5.234375 C 27.427455 5.259215 27.463879 5.2862731 27.498047 5.3144531 C 27.532217 5.3426331 27.564413 5.3730069 27.595703 5.4042969 C 27.626993 5.4355869 27.657377 5.4677731 27.685547 5.5019531 C 27.713727 5.5361231 27.740785 5.572548 27.765625 5.609375 C 27.790465 5.646205 27.812714 5.6834062 27.833984 5.7226562 C 27.855254 5.7619063 27.875098 5.802298 27.892578 5.84375 C 27.910058 5.8852 27.926003 5.9292433 27.939453 5.9726562 C 27.952903 6.0160662 27.963466 6.0583606 27.972656 6.1035156 C 27.981856 6.1486656 27.989421 6.1955215 27.994141 6.2421875 C 27.998841 6.2888575 28 6.3368176 28 6.3847656 L 28 12.613281 L 28 12.615234 L 28 13.998047 L 26.673828 13.998047 C 26.654888 13.998769 26.634414 14 26.615234 14 L 20.384766 14 L 19 14 L 19 12.615234 L 19 6.3847656 L 19 5 z "
         transform="translate(-34)" />
      <g
         id="path884">
        <path
           style="color:#000000;fill:#000000;fill-opacity:0;stroke-width:2.6;stroke-linejoin:round;-inkscape-stroke:none"
           d="m -28.099993,4.3000101 c -0.886401,0 -1.6,0.7136004 -1.6,1.6000006 v 7.1968773 0.0032 1.596876 h 1.534375 c 0.02193,8.67e-4 0.04347,0.0032 0.06562,0.0032 h 7.200003 1.600001 V 13.100004 5.9000011 4.3000005 h -1.600001 z"
           id="path22877" />
        <path
           id="path22879"
           style="color:#000000;fill:#f1fa8c;stroke-linejoin:round;-inkscape-stroke:none"
           d="M 5.9003906 3 C 4.3162776 3 3 4.3162796 3 5.9003906 L 3 13.097656 L 3 13.099609 L 3 14.697266 A 1.30013 1.30013 0 0 0 4.3007812 15.996094 L 5.7832031 15.996094 C 5.7467231 15.994694 5.7870026 16 5.9003906 16 L 13.099609 16 L 14.699219 16 A 1.30013 1.30013 0 0 0 16 14.699219 L 16 13.099609 L 16 5.9003906 L 16 4.3007812 A 1.30013 1.30013 0 0 0 14.699219 3 L 13.099609 3 L 5.9003906 3 z M 6.3847656 5 L 12.615234 5 L 14 5 L 14 6.3847656 L 14 12.615234 L 14 14 L 12.615234 14 L 6.3847656 14 C 6.3655856 14 6.3451529 13.998769 6.3261719 13.998047 L 5 13.998047 L 5 12.615234 L 5 12.613281 L 5 6.3847656 C 5 6.3368176 5.0011894 6.2888575 5.0058594 6.2421875 C 5.0105764 6.1955215 5.0181537 6.1486656 5.0273438 6.1035156 C 5.0365357 6.0583606 5.0470969 6.0160662 5.0605469 5.9726562 C 5.0739969 5.9292433 5.0899469 5.8852 5.1074219 5.84375 C 5.1248959 5.802298 5.1447496 5.7619063 5.1660156 5.7226562 C 5.1872896 5.6834062 5.209535 5.646205 5.234375 5.609375 C 5.259216 5.572548 5.2862721 5.5361231 5.3144531 5.5019531 C 5.3426311 5.4677731 5.3730089 5.4355869 5.4042969 5.4042969 C 5.4355849 5.3730069 5.4677831 5.3426331 5.5019531 5.3144531 C 5.5361241 5.2862731 5.57255 5.259215 5.609375 5.234375 C 5.6461996 5.209535 5.6834062 5.1872856 5.7226562 5.1660156 C 5.7619058 5.1447356 5.802303 5.1248919 5.84375 5.1074219 C 5.8851962 5.0899419 5.9292403 5.0739969 5.9726562 5.0605469 C 6.016072 5.0471069 6.0583606 5.0365437 6.1035156 5.0273438 C 6.1486707 5.0181537 6.1955215 5.0105594 6.2421875 5.0058594 C 6.2888542 5.0011594 6.3368166 5 6.3847656 5 z "
           transform="translate(-34)" />
      </g>
      <path
         id="path886"
         style="color:#000000;fill:#50fa7a;stroke-linejoin:round;-inkscape-stroke:none"
         d="M 18.300781 17 A 1.30013 1.30013 0 0 0 17 18.300781 L 17 19.900391 L 17 27.099609 L 17 28.699219 A 1.30013 1.30013 0 0 0 18.300781 30 L 19.900391 30 L 27.099609 30 C 28.683721 30 30 28.683721 30 27.099609 L 30 19.900391 L 30 18.300781 A 1.30013 1.30013 0 0 0 28.699219 17 L 27.099609 17 L 19.900391 17 L 18.300781 17 z M 19 19 L 20.384766 19 L 26.615234 19 C 26.634414 19 26.654887 19.001231 26.673828 19.001953 L 28 19.001953 L 28 20.384766 L 28 20.386719 L 28 26.615234 C 28 26.663182 27.998841 26.711143 27.994141 26.757812 C 27.989421 26.804478 27.981856 26.851334 27.972656 26.896484 C 27.963466 26.941639 27.952903 26.983934 27.939453 27.027344 C 27.926003 27.070757 27.910058 27.1148 27.892578 27.15625 C 27.875098 27.197702 27.855254 27.238094 27.833984 27.277344 C 27.812714 27.316594 27.790465 27.353795 27.765625 27.390625 C 27.740785 27.427452 27.713727 27.463877 27.685547 27.498047 C 27.657377 27.532227 27.626993 27.564413 27.595703 27.595703 C 27.564413 27.626993 27.532217 27.657367 27.498047 27.685547 C 27.463879 27.713727 27.427455 27.740785 27.390625 27.765625 C 27.353804 27.790465 27.316594 27.812714 27.277344 27.833984 C 27.238093 27.855264 27.1977 27.875108 27.15625 27.892578 C 27.114806 27.910058 27.070764 27.926003 27.027344 27.939453 C 26.98393 27.952893 26.941644 27.963456 26.896484 27.972656 C 26.851327 27.981846 26.804482 27.989441 26.757812 27.994141 C 26.711146 27.998841 26.663184 28 26.615234 28 L 20.384766 28 L 19 28 L 19 26.615234 L 19 20.384766 L 19 19 z "
         transform="translate(-34)" />
      <path
         id="path888"
         style="color:#000000;fill:#bd93f9;fill-opacity:0.866667;stroke-linejoin:round;-inkscape-stroke:none"
         d="M 4.3007812 17 A 1.30013 1.30013 0 0 0 3 18.300781 L 3 19.900391 L 3 27.099609 C 3 28.683721 4.3162786 30 5.9003906 30 L 13.099609 30 L 14.699219 30 A 1.30013 1.30013 0 0 0 16 28.699219 L 16 27.099609 L 16 19.900391 L 16 18.300781 A 1.30013 1.30013 0 0 0 14.699219 17 L 13.099609 17 L 5.9003906 17 L 4.3007812 17 z M 6.3847656 19 L 12.615234 19 L 14 19 L 14 20.384766 L 14 26.615234 L 14 28 L 12.615234 28 L 6.3847656 28 C 6.3368166 28 6.2888542 27.998841 6.2421875 27.994141 C 6.1955215 27.989441 6.1486707 27.981846 6.1035156 27.972656 C 6.0583606 27.963456 6.016072 27.952893 5.9726562 27.939453 C 5.9292403 27.926003 5.8851962 27.910058 5.84375 27.892578 C 5.802303 27.875108 5.7619059 27.855264 5.7226562 27.833984 C 5.6834062 27.812714 5.6461996 27.790465 5.609375 27.765625 C 5.57255 27.740785 5.5361241 27.713727 5.5019531 27.685547 C 5.4677831 27.657367 5.4355849 27.626993 5.4042969 27.595703 C 5.3730089 27.564413 5.3426311 27.532227 5.3144531 27.498047 C 5.2862721 27.463877 5.259216 27.427452 5.234375 27.390625 C 5.209535 27.353795 5.1872896 27.316594 5.1660156 27.277344 C 5.1447496 27.238094 5.1248959 27.197702 5.1074219 27.15625 C 5.0899469 27.1148 5.0739969 27.070757 5.0605469 27.027344 C 5.0470969 26.983934 5.0365358 26.941639 5.0273438 26.896484 C 5.0181537 26.851334 5.0105764 26.804478 5.0058594 26.757812 C 5.0011894 26.711143 5 26.663182 5 26.615234 L 5 20.386719 L 5 20.384766 L 5 19.001953 L 6.3261719 19.001953 C 6.3451525 19.001231 6.3655859 19 6.3847656 19 z "
         transform="translate(-34)" />
    </g>
  </g>
  <path
     style="fill:none;stroke:#ff5555;stroke-width:2;stroke-linecap:butt;stroke-linejoin:miter;stroke-miterlimit:4;stroke-dasharray:none;stroke-opacity:1"
     d="m 40.429761,-140.54405 23.86662,-2.2e-4 m 0,0 0.27024,59.925265 31.13835,0.6212 -0.32768,-31.627915 28.322639,2.38746 m 0,0 0.13909,29.379505 m 0,0 30.85939,0.54297 m 0,0 0.85773,-59.618165 m 0,0 28.51056,0.45659 m 0,0 1.40504,58.909235 29.05652,-0.86375 m 0,0 1.78322,31.55739 -25.10472,-1.57091"
     id="path1882" />
  <path
     id="path22144"
     style="fill:none;fill-opacity:1;stroke:#ff5555;stroke-width:0.999997;stroke-linejoin:round;stroke-opacity:1"
     d="m -15.500001,3.4999986 v 1.8461543 8.3076941 1.846154 h 1.846154 8.3076945 1.846154 V 13.653847 5.3461529 c 0,-1.0227695 -0.823384,-1.8461543 -1.846154,-1.8461543 h -8.3076945 z" />
  <g
     id="22-22-start-here-kde"
     transform="translate(-27)">
    <circle
       r="11"
       cy="21"
       cx="76"
       id="path822"
       style="opacity:0;fill:#ffffff;fill-opacity:1;stroke:none;stroke-width:1.24874;stroke-linecap:round;stroke-linejoin:round;stroke-miterlimit:4;stroke-dasharray:none;stroke-opacity:1;paint-order:normal" />
    <g
       id="g23005"
       transform="matrix(0.7037037,0,0,0.7037037,88.855831,9.888889)">
      <path
         id="path22993"
         style="color:#000000;fill:#ff5555;stroke-width:0.983807;stroke-linejoin:round;-inkscape-stroke:none"
         d="m -15.568045,3 a 1.2790753,1.2790752 0 0 0 -1.279715,1.279716 v 1.5737049 7.0826311 1.573707 a 1.2790753,1.2790752 0 0 0 1.279715,1.279714 h 1.573706 7.0826317 1.5737053 a 1.2790753,1.2790752 0 0 0 1.2797157,-1.279714 V 12.936052 5.8534209 C -4.0582863,4.2949629 -5.353248,3 -6.9117073,3 h -7.0826317 z m 0.687897,1.9676113 h 1.362339 6.1295709 c 0.047174,0 0.094357,0.00113 0.1402688,0.00576 0.045914,0.00462 0.092005,0.012094 0.1364265,0.021136 0.044429,0.00905 0.086034,0.019443 0.1287408,0.032665 0.042717,0.013232 0.086044,0.02892 0.1268185,0.046117 0.040779,0.017187 0.080514,0.03671 0.1191328,0.057646 0.038614,0.020925 0.075222,0.042814 0.1114466,0.067253 0.036234,0.024437 0.072063,0.051058 0.1056822,0.078782 0.033617,0.027724 0.065295,0.057607 0.096078,0.08839 0.030783,0.030783 0.060671,0.062449 0.088385,0.096075 0.027724,0.033616 0.054345,0.069453 0.078784,0.1056822 0.024438,0.036233 0.046326,0.072832 0.067254,0.1114467 0.020925,0.038615 0.040444,0.078353 0.057641,0.1191328 0.017197,0.040779 0.032889,0.08411 0.046111,0.1268186 0.013232,0.042707 0.023621,0.084315 0.032663,0.1287403 0.00905,0.04442 0.016488,0.090515 0.021132,0.1364261 0.00462,0.045914 0.0058,0.093097 0.0058,0.1402692 v 6.1276488 0.002 1.360419 H -7.330596 c -0.018632,6.63e-4 -0.038776,0.0019 -0.057645,0.0019 h -6.129571 -1.362339 V 12.459585 6.3300134 Z" />
      <g
         id="g22999">
        <path
           style="color:#000000;fill:#000000;fill-opacity:0;stroke-width:2.6;stroke-linejoin:round;-inkscape-stroke:none"
           d="m -28.099993,4.3000101 c -0.886401,0 -1.6,0.7136004 -1.6,1.6000006 v 7.1968773 0.0032 1.596876 h 1.534375 c 0.02193,8.67e-4 0.04347,0.0032 0.06562,0.0032 h 7.200003 1.600001 V 13.100004 5.9000011 4.3000005 h -1.600001 z"
           id="path22995" />
        <path
           id="path22997"
           style="color:#000000;fill:#f1fa8c;stroke-width:0.983803;stroke-linejoin:round;-inkscape-stroke:none"
           d="m -28.204865,3 c -1.55846,0 -2.853421,1.2949569 -2.853421,2.8534066 v 7.0806754 0.002 1.571776 a 1.2790752,1.2790689 0 0 0 1.279716,1.277788 h 1.458414 c -0.03588,-0.0014 0.0037,0.0038 0.115291,0.0038 h 7.082631 1.573706 a 1.2790752,1.2790689 0 0 0 1.279715,-1.279708 V 12.936003 5.8534066 4.2797096 A 1.2790752,1.2790689 0 0 0 -19.548528,3 h -1.573706 z m 0.47653,1.9676016 h 6.12957 1.362341 v 1.3623335 6.1295399 1.362334 h -1.362341 -6.12957 c -0.01886,0 -0.03897,-0.0012 -0.05764,-0.002 h -1.304695 v -1.360413 -0.002 -6.1276177 c 0,-0.047171 0.0012,-0.094355 0.0057,-0.1402685 0.0046,-0.04591 0.01209,-0.092007 0.02114,-0.1364256 0.009,-0.044423 0.01943,-0.086033 0.03267,-0.1287395 0.01323,-0.042709 0.02892,-0.08604 0.04612,-0.126818 0.01719,-0.040781 0.03673,-0.080519 0.05764,-0.1191322 0.02093,-0.038614 0.04282,-0.075212 0.06726,-0.1114462 0.02444,-0.03623 0.05105,-0.072065 0.07878,-0.1056817 0.02773,-0.033626 0.05761,-0.065291 0.08839,-0.096074 0.03078,-0.030783 0.06245,-0.060665 0.09608,-0.088388 0.03361,-0.027723 0.06946,-0.054343 0.105683,-0.078781 0.03622,-0.024437 0.07283,-0.046326 0.111446,-0.067252 0.03862,-0.020935 0.07836,-0.040458 0.119133,-0.057644 0.04078,-0.017197 0.0841,-0.032884 0.126819,-0.046116 0.04271,-0.013222 0.08431,-0.023614 0.128739,-0.032665 0.04442,-0.00904 0.09051,-0.016512 0.136427,-0.021136 0.04591,-0.00453 0.09309,-0.00568 0.140269,-0.00568 z" />
      </g>
      <path
         id="path23001"
         style="color:#000000;fill:#50fa7a;stroke-width:0.982685;stroke-linejoin:round;-inkscape-stroke:none"
         d="m -15.55493,17.20324 a 1.277618,1.277618 0 0 0 -1.278258,1.278258 v 1.571912 7.074563 1.571912 a 1.277618,1.277618 0 0 0 1.278258,1.278258 h 1.571912 7.0745617 c 1.5566827,0 2.85017,-1.293488 2.85017,-2.85017 V 20.05341 18.481498 A 1.277618,1.277618 0 0 0 -5.3365439,17.20324 h -1.5719124 -7.0745617 z m 0.687112,1.96537 h 1.360788 6.1225858 c 0.018847,0 0.038964,0.0012 0.057576,0.002 h 1.303213 v 1.35887 0.002 6.120668 c 0,0.04712 -0.00119,0.09426 -0.0058,0.14011 -0.00461,0.04586 -0.012068,0.09191 -0.021108,0.13627 -0.00904,0.04437 -0.019408,0.08593 -0.032625,0.128595 -0.013217,0.04265 -0.028891,0.08594 -0.046058,0.126674 -0.017177,0.04073 -0.036674,0.08043 -0.057576,0.118997 -0.020901,0.03857 -0.042766,0.07512 -0.067177,0.111319 -0.024409,0.0362 -0.051002,0.07198 -0.078693,0.105561 -0.027682,0.03359 -0.057536,0.06522 -0.088285,0.09597 -0.030748,0.03074 -0.062392,0.06059 -0.095969,0.08829 -0.033578,0.0277 -0.069368,0.05429 -0.105562,0.07869 -0.036182,0.02442 -0.072748,0.04628 -0.1113193,0.06718 -0.03857,0.02091 -0.07826,0.04041 -0.1189973,0.05757 -0.040723,0.01718 -0.08401,0.03285 -0.1266741,0.04605 -0.042659,0.0132 -0.084216,0.02359 -0.128594,0.03263 -0.044378,0.0091 -0.090407,0.01648 -0.1362708,0.02111 -0.045831,0.0045 -0.092963,0.0057 -0.1400827,0.0057 h -6.1225856 -1.360788 v -1.36075 -6.122587 z" />
      <path
         id="path23003"
         style="color:#000000;fill:#bd93f9;fill-opacity:0.866667;stroke-width:0.983805;stroke-linejoin:round;-inkscape-stroke:none"
         d="m -29.77857,17.210526 a 1.2790752,1.2790752 0 0 0 -1.279716,1.279716 v 1.573706 7.082631 c 0,1.558458 1.294962,2.853421 2.853421,2.853421 h 7.082631 1.573706 a 1.2790752,1.2790752 0 0 0 1.279715,-1.279716 v -1.573705 -7.082631 -1.573706 a 1.2790752,1.2790752 0 0 0 -1.279715,-1.279716 h -1.573706 -7.082631 z m 2.050236,1.967612 h 6.129569 1.362341 v 1.36234 6.12957 1.362341 h -1.362341 -6.129569 c -0.04717,0 -0.09436,-0.0012 -0.14027,-0.0058 -0.04591,-0.0046 -0.092,-0.01209 -0.136426,-0.02114 -0.04442,-0.009 -0.08602,-0.01944 -0.12874,-0.03266 -0.04272,-0.01323 -0.08604,-0.02892 -0.126819,-0.04611 -0.04078,-0.01719 -0.08052,-0.03671 -0.119133,-0.05764 -0.03862,-0.02092 -0.07522,-0.04282 -0.111446,-0.06726 -0.03623,-0.02444 -0.07207,-0.05106 -0.105683,-0.07878 -0.03361,-0.02773 -0.0653,-0.0576 -0.09608,-0.08838 -0.03078,-0.03078 -0.06067,-0.06245 -0.08839,-0.09608 -0.02773,-0.03361 -0.05435,-0.06946 -0.07878,-0.105683 -0.02444,-0.03624 -0.04632,-0.07283 -0.06726,-0.111446 -0.02092,-0.03862 -0.04045,-0.07835 -0.05764,-0.119133 -0.01719,-0.04078 -0.03288,-0.0841 -0.04612,-0.126818 -0.01323,-0.0427 -0.02362,-0.08432 -0.03267,-0.128741 -0.009,-0.04442 -0.01649,-0.09052 -0.02114,-0.136427 -0.0046,-0.04589 -0.0057,-0.09307 -0.0057,-0.140242 V 20.5424 20.5404 19.179981 h 1.304696 c 0.01868,-6.65e-4 0.03878,-0.0019 0.05764,-0.0019 z" />
    </g>
  </g>
</svg>
