<?xml version="1.0" encoding="UTF-8" standalone="no"?>
<svg
   id="svg4379"
   width="200"
   height="200"
   inkscape:version="1.1.1 (3bf5ae0d25, 2021-09-20, custom)"
   sodipodi:docname="kde.svg"
   version="1.1"
   viewBox="0 0 200 200"
   xmlns:inkscape="http://www.inkscape.org/namespaces/inkscape"
   xmlns:sodipodi="http://sodipodi.sourceforge.net/DTD/sodipodi-0.dtd"
   xmlns="http://www.w3.org/2000/svg"
   xmlns:svg="http://www.w3.org/2000/svg">
  <defs
     id="defs8" />
  <sodipodi:namedview
     id="namedview39"
     bordercolor="#666666"
     borderopacity="1"
     gridtolerance="10"
     guidetolerance="10"
     inkscape:current-layer="svg4379"
     inkscape:cx="6.5197644"
     inkscape:cy="164.91169"
     inkscape:pageopacity="0"
     inkscape:pageshadow="2"
     inkscape:window-height="1001"
     inkscape:window-maximized="1"
     inkscape:window-width="1920"
     inkscape:window-x="0"
     inkscape:window-y="0"
     inkscape:zoom="1.3037281"
     objecttolerance="10"
     pagecolor="#dfe2e4"
     showgrid="false"
     inkscape:pagecheckerboard="0">
    <inkscape:grid
       id="grid839"
       type="xygrid" />
  </sodipodi:namedview>
  <g
     id="g1673"
     transform="matrix(5.7407407,0,0,5.7407407,200.46296,5.2777785)">
    <path
       id="path1661"
       style="color:#000000;fill:#ff5555;stroke-linejoin:round;-inkscape-stroke:none"
       d="M 18.300781,3 A 1.30013,1.30013 0 0 0 17,4.3007812 v 1.5996094 7.1992184 1.59961 A 1.30013,1.30013 0 0 0 18.300781,16 h 1.59961 7.199218 1.59961 A 1.30013,1.30013 0 0 0 30,14.699219 V 13.099609 5.9003906 C 30,4.3162792 28.683722,3 27.099609,3 H 19.900391 Z M 19,5 h 1.384766 6.230468 c 0.04795,0 0.09591,0.00116 0.142578,0.00586 0.04667,0.0047 0.09352,0.012294 0.138672,0.021484 0.04516,0.0092 0.08745,0.019763 0.13086,0.033203 0.04342,0.01345 0.08746,0.029395 0.128906,0.046875 0.04145,0.01747 0.08184,0.037314 0.121094,0.058594 0.03925,0.02127 0.07646,0.043519 0.113281,0.068359 0.03683,0.02484 0.07325,0.051898 0.107422,0.080078 0.03417,0.02818 0.06637,0.058554 0.09766,0.089844 0.03129,0.03129 0.06167,0.063476 0.08984,0.097656 0.02818,0.03417 0.05524,0.070595 0.08008,0.1074219 0.02484,0.03683 0.04709,0.074031 0.06836,0.1132812 0.02127,0.03925 0.04111,0.079642 0.05859,0.1210938 0.01748,0.04145 0.03343,0.085493 0.04687,0.1289062 0.01345,0.04341 0.02401,0.085704 0.0332,0.1308594 0.0092,0.04515 0.01676,0.092006 0.02148,0.1386719 0.0047,0.04667 0.0059,0.09463 0.0059,0.1425781 v 6.2285155 0.002 1.382813 H 26.673828 C 26.654888,13.998769 26.634414,14 26.615234,14 H 20.384766 19 V 12.615234 6.3847656 Z"
       transform="translate(-34)" />
    <g
       id="g1667">
      <path
         style="color:#000000;fill:#000000;fill-opacity:0;stroke-width:2.6;stroke-linejoin:round;-inkscape-stroke:none"
         d="m -28.099993,4.3000101 c -0.886401,0 -1.6,0.7136004 -1.6,1.6000006 v 7.1968773 0.0032 1.596876 h 1.534375 c 0.02193,8.67e-4 0.04347,0.0032 0.06562,0.0032 h 7.200003 1.600001 V 13.100004 5.9000011 4.3000005 h -1.600001 z"
         id="path1663" />
      <path
         id="path1665"
         style="color:#000000;fill:#f1fa8c;stroke-linejoin:round;-inkscape-stroke:none"
         d="M 5.9003906,3 C 4.3162776,3 3,4.3162796 3,5.9003906 v 7.1972654 0.002 1.597657 a 1.30013,1.30013 0 0 0 1.3007812,1.298828 H 5.7832031 C 5.7467231,15.994694 5.7870026,16 5.9003906,16 h 7.1992184 1.59961 A 1.30013,1.30013 0 0 0 16,14.699219 V 13.099609 5.9003906 4.3007812 A 1.30013,1.30013 0 0 0 14.699219,3 h -1.59961 z m 0.484375,2 H 12.615234 14 V 6.3847656 12.615234 14 H 12.615234 6.3847656 c -0.01918,0 -0.039613,-0.0012 -0.058594,-0.002 H 5 v -1.382813 -0.002 -6.2285154 C 5,6.3367236 5.00119,6.2887636 5.00586,6.2420935 5.01058,6.1954275 5.018154,6.1485715 5.027344,6.1034216 5.036534,6.0582666 5.047097,6.0159726 5.060547,5.9725622 5.073997,5.9291492 5.089947,5.8851062 5.107422,5.843656 5.124896,5.802204 5.14475,5.761812 5.166016,5.7225622 5.18729,5.6833122 5.209535,5.6461112 5.234375,5.609281 5.259216,5.572454 5.286272,5.536029 5.314453,5.5018591 c 0.028178,-0.03418 0.058556,-0.066366 0.089844,-0.097656 0.031288,-0.03129 0.063486,-0.061664 0.097656,-0.089844 0.034171,-0.02818 0.070597,-0.055238 0.1074219,-0.080078 0.036825,-0.02484 0.074031,-0.047089 0.1132812,-0.068359 0.03925,-0.02128 0.079647,-0.041124 0.1210938,-0.058594 0.041446,-0.01748 0.08549,-0.033425 0.1289062,-0.046875 0.043416,-0.01344 0.085704,-0.024003 0.1308594,-0.033203 0.045155,-0.00919 0.092006,-0.016784 0.1386719,-0.021484 C 6.2888542,5.0011594 6.3368166,5 6.3847656,5 Z"
         transform="translate(-34)" />
    </g>
    <path
       id="path1669"
       style="color:#000000;fill:#50fa7a;stroke-linejoin:round;-inkscape-stroke:none"
       d="M 18.300781,17 A 1.30013,1.30013 0 0 0 17,18.300781 v 1.59961 7.199218 1.59961 A 1.30013,1.30013 0 0 0 18.300781,30 h 1.59961 7.199218 C 28.683721,30 30,28.683721 30,27.099609 v -7.199218 -1.59961 A 1.30013,1.30013 0 0 0 28.699219,17 h -1.59961 -7.199218 z M 19,19 h 1.384766 6.230468 c 0.01918,0 0.03965,0.0012 0.05859,0.002 H 28 v 1.382813 0.002 6.228515 c 0,0.04795 -0.0012,0.09591 -0.0059,0.142578 -0.0047,0.04667 -0.01228,0.09352 -0.02148,0.138672 -0.0092,0.04515 -0.01975,0.08745 -0.0332,0.13086 -0.01345,0.04341 -0.0294,0.08746 -0.04687,0.128906 -0.01748,0.04145 -0.03732,0.08184 -0.05859,0.121094 -0.02127,0.03925 -0.04352,0.07645 -0.06836,0.113281 -0.02484,0.03683 -0.0519,0.07325 -0.08008,0.107422 -0.02817,0.03418 -0.05855,0.06637 -0.08984,0.09766 -0.03129,0.03129 -0.06349,0.06166 -0.09766,0.08984 -0.03417,0.02818 -0.07059,0.05524 -0.107422,0.08008 -0.03682,0.02484 -0.07403,0.04709 -0.113281,0.06836 -0.03925,0.02128 -0.07964,0.04112 -0.121094,0.05859 -0.04144,0.01748 -0.08549,0.03343 -0.128906,0.04687 -0.04341,0.01344 -0.0857,0.024 -0.13086,0.0332 -0.04516,0.0092 -0.092,0.01678 -0.138672,0.02148 C 26.711146,27.998841 26.663184,28 26.615234,28 H 20.384766 19 v -1.384766 -6.230468 z"
       transform="translate(-34)" />
    <path
       id="path1671"
       style="color:#000000;fill:#bd93f9;fill-opacity:0.866667;stroke-linejoin:round;-inkscape-stroke:none"
       d="M 4.3007812,17 A 1.30013,1.30013 0 0 0 3,18.300781 v 1.59961 7.199218 C 3,28.683721 4.3162786,30 5.9003906,30 h 7.1992184 1.59961 A 1.30013,1.30013 0 0 0 16,28.699219 v -1.59961 -7.199218 -1.59961 A 1.30013,1.30013 0 0 0 14.699219,17 h -1.59961 -7.1992184 z m 2.0839844,2 H 12.615234 14 V 20.384766 26.615234 28 H 12.615234 6.3847656 C 6.3368166,28 6.2888546,27.9988 6.2421875,27.9941 6.1955215,27.9894 6.1486705,27.98181 6.1035156,27.97262 6.0583606,27.96342 6.0160716,27.95286 5.9726562,27.93942 5.9292402,27.92597 5.8851962,27.91002 5.84375,27.89255 5.802303,27.87508 5.761906,27.85524 5.7226562,27.83396 5.6834062,27.81269 5.6461992,27.79044 5.609375,27.7656 5.57255,27.74076 5.536124,27.7137 5.5019531,27.68552 c -0.03417,-0.02818 -0.066368,-0.05855 -0.097656,-0.08984 -0.031288,-0.03129 -0.061666,-0.06348 -0.089844,-0.09766 -0.028181,-0.03417 -0.055237,-0.0706 -0.080078,-0.107422 -0.02484,-0.03683 -0.047085,-0.07403 -0.068359,-0.113281 -0.021266,-0.03925 -0.04112,-0.07964 -0.058594,-0.121094 -0.017475,-0.04145 -0.033425,-0.08549 -0.046875,-0.128906 -0.01345,-0.04341 -0.024011,-0.08571 -0.033203,-0.13086 -0.00919,-0.04515 -0.016767,-0.09201 -0.021484,-0.138672 C 5.0011894,26.711143 5,26.663182 5,26.615234 v -6.228515 -0.002 -1.382813 H 6.3261719 C 6.3451525,19.001231 6.3655859,19 6.3847656,19 Z"
       transform="translate(-34)" />
  </g>
</svg>
